<svg width="29" height="14" viewBox="0 0 29 14" fill="none" xmlns="http://www.w3.org/2000/svg">
<path d="M0.000447464 5.68288V8.31848H1.36843L1.36822 5.68288H0.000447464ZM2.80722 2.71685C2.60162 2.71685 2.40833 2.7969 2.26296 2.94233C2.11758 3.08773 2.03755 3.28102 2.03756 3.4866L2.03772 5.34545L2.03785 5.34811L2.03772 5.35076L2.03813 10.5141C2.03819 10.9384 2.38346 11.2836 2.80778 11.2836H4.10235L4.10172 2.71684L2.80722 2.71685ZM6.81911 0.22537C6.67374 0.0800182 6.48051 1.07288e-06 6.27496 1.07288e-06L5.54063 0.000130946C5.11631 0.00017794 4.77111 0.345439 4.77111 0.769769L4.7719 11.616L4.77202 11.6184L4.7719 11.6207L4.77202 13.2304C4.77202 13.436 4.8521 13.6292 4.9975 13.7746C5.14287 13.9199 5.3361 14 5.54167 14L6.27581 13.9999C6.70015 13.9998 7.04538 13.6545 7.04535 13.2302L7.04508 8.65474L7.04498 8.65282L7.04508 8.65088L7.04461 0.76958C7.04459 0.564018 6.96451 0.370721 6.81911 0.22537ZM7.71443 5.68239L7.71458 8.31799L28.5106 8.31717L28.5107 5.68156L7.71443 5.68239Z" fill="#202020"/>
</svg>
